# xmcd CD database file
#
# Track frame offsets:
#	150
#	33670
#	57582
#	86009
#	98636
#	121323
#	142818
#	165936
#	178414
#	196090
#	215144
#	236451
#	251110
#	266615
#	292686
#
# Disc length: 4204 seconds
#
# Revision: 0
# Processed by: cddbd v1.5.1PL0 Copyright (c) Steve Scherf et al.
# Submitted via: CDex 1.51
#
DISCID=d5106a0f
DTITLE=Various Artist - Romantic Moods
DYEAR=1900
DGENRE=Jazz
TTITLE0=Imagination - Woody Shaw
TTITLE1=I can't get started - Jamie Cullum
TTITLE2=My one and only love - Kenny Burrell
TTITLE3=Don't blame me - Charlie Parker
TTITLE4=They can't take that away from me - Stacey Kent
TTITLE5=Alone together - Dizzy Gillespie
TTITLE6=Sophisticated Lady - Larry Coryell
TTITLE7=And the Angels sing - Stan Getz
TTITLE8=Ruby my Dear - Hank Jones
TTITLE9=Speak Low - Clare Teal
TTITLE10=Mirage - Art Blakey
TTITLE11=The second time around - Red Garland
TTITLE12=Lover Man - Sarah Vaughan
TTITLE13=That's all there is to love - Donald Byrd
TTITLE14=Li'l Darlin' - Count Basie
EXTD=
EXTT0=
EXTT1=
EXTT2=
EXTT3=
EXTT4=
EXTT5=
EXTT6=
EXTT7=
EXTT8=
EXTT9=
EXTT10=
EXTT11=
EXTT12=
EXTT13=
EXTT14=
PLAYORDER=
